<svg xmlns="http://www.w3.org/2000/svg" viewBox="0 0 135.54 54.8"><defs><style>.cls-1{fill:#57c3ea;}</style></defs><title>Asset 1</title><g id="Layer_2" data-name="Layer 2"><g id="レイヤー_2" data-name="レイヤー 2"><path class="cls-1" d="M2.24,4.23c0-1.32.2-3.4-1.26-3.94V.21H6.41V.29C5,.83,5.15,2.95,5.15,4.23V15c0,1.28-.17,3.36,1.26,3.91V19H1V18.9c1.43-.51,1.26-2.63,1.26-3.91Z"/><path class="cls-1" d="M13.51,15.26c0,1.6,0,2.74,1.49,3.62V19H9.94v-.08c1.52-.88,1.52-2,1.52-3.62V3.87c0-1.6,0-2.74-1.48-3.59V.19h4.16v0a1.74,1.74,0,0,0,.43.71l.4.57L25.41,14.69V3.87c0-1.6,0-2.74-1.48-3.59V.19h5V.28c-1.48.85-1.48,2-1.48,3.59v16a7.85,7.85,0,0,1-4.17-3.25L13.51,4.21Z"/><path class="cls-1" d="M39.7,15.37c0,1.63,0,2.74,1.48,3.63v.09H35.52V19c1.43-.55,1.26-2.63,1.26-3.91V2.36H34.27a5,5,0,0,0-3.4,1.14h-.08l1-3.4h.08A4.53,4.53,0,0,0,33,.3H44.32a3.19,3.19,0,0,0,1.31-.2h.08l-.91,3.4h-.09c-.37-1-1.52-1.14-2.46-1.14H39.7Z"/><path class="cls-1" d="M52.59,16.66l3.62.34a7.15,7.15,0,0,0,5.29-1.68h.08L60.3,19.06H48.4V19c1.46-.51,1.28-2.63,1.28-3.91V4.3c0-1.32.17-3.4-1.28-3.94V.28h9.13A3,3,0,0,0,58.87.14H59V3.48h-.08A4,4,0,0,0,55.5,2.34a15.65,15.65,0,0,0-2.91.2V7.84H56a2.89,2.89,0,0,0,1.25-.17h.09v3h-.09c-.46-.82-1.65-.8-2.54-.8H52.59Z"/><path class="cls-1" d="M71.06.21C74.88.21,77,2.2,77,4.8s-2.2,4.48-4.54,5L76.54,15a20,20,0,0,0,4.62,4H78.54a3.75,3.75,0,0,1-3.31-1.43l-3.48-4.31-2.63-4c2.29-.34,4.94-1.4,4.94-4.08A3.28,3.28,0,0,0,70.37,2a14.47,14.47,0,0,0-1.94.22V15c0,1.31-.17,3.4,1.29,3.91V19H64.27V18.9c1.45-.51,1.25-2.63,1.25-3.91V4.23c0-1.32.2-3.4-1.25-3.94V.21Z"/><path class="cls-1" d="M86.56,15.23c0,1.6,0,2.74,1.49,3.63v.09H83v-.09c1.52-.88,1.52-2,1.52-3.63V3.84c0-1.6,0-2.74-1.49-3.59V.16h4.17v0a1.8,1.8,0,0,0,.42.71l.41.57L98.47,14.66V3.84c0-1.6,0-2.74-1.48-3.59V.16h5V.25c-1.48.85-1.48,2-1.48,3.59v16a7.91,7.91,0,0,1-4.17-3.25L86.56,4.18Z"/><path class="cls-1" d="M109.74,16.66l3.62.34a7.14,7.14,0,0,0,5.28-1.68h.08l-1.29,3.74h-11.9V19c1.45-.51,1.28-2.63,1.28-3.91V4.3c0-1.32.17-3.4-1.28-3.94V.28h9.13A3,3,0,0,0,116,.14h.09V3.48H116a4,4,0,0,0-3.37-1.14,15.67,15.67,0,0,0-2.91.2V7.84h3.4a2.9,2.9,0,0,0,1.26-.17h.09v3h-.09c-.46-.82-1.65-.8-2.54-.8h-2.11Z"/><path class="cls-1" d="M129.52,15.27c0,1.63,0,2.75,1.48,3.63V19h-5.65v-.09c1.43-.54,1.25-2.62,1.25-3.91V2.25h-2.51a5,5,0,0,0-3.4,1.14h-.08l1-3.39h.09a4.39,4.39,0,0,0,1.09.2h11.36a3.26,3.26,0,0,0,1.31-.2h.09l-.92,3.39h-.08c-.38-1-1.52-1.14-2.46-1.14h-2.57Z"/><path class="cls-1" d="M6.16,35.13l-1.48,4c-.6,1.6-.8,2.43.57,2.94v.08H0V42.1c1.66-.83,2.14-2.43,2.77-4.06l4.76-11.9c.4-1,.94-2.23-.42-2.66V23.4h4.51L17.55,38c.66,1.63,1.17,3.23,2.8,4.06v.08H14.5V42.1c1.4-.63,1.17-.94.4-2.94l-1.54-4Zm3.57-9.3L6.91,33h5.62Z"/><path class="cls-1" d="M34.5,26.94a10,10,0,0,0-5.28-1.62c-3.94,0-6.68,2.88-6.68,7s2.85,7.94,7.25,7.94a12.54,12.54,0,0,0,6.07-1.8h.08L34.5,41.78a10.18,10.18,0,0,1-4.31.86c-6.74,0-10.9-3.77-10.9-9.87,0-5.91,4.17-9.82,10-9.82a22.43,22.43,0,0,1,5.19.72Z"/><path class="cls-1" d="M42.74,35.13l-1.49,4c-.6,1.6-.8,2.43.57,2.94v.08H36.57V42.1c1.66-.83,2.14-2.43,2.77-4.06l4.77-11.9c.4-1,.94-2.23-.43-2.66V23.4h4.51L54.12,38c.66,1.63,1.17,3.23,2.79,4.06v.08H51.07V42.1c1.4-.63,1.17-.94.4-2.94l-1.55-4Zm3.57-9.3L43.48,33H49.1Z"/><path class="cls-1" d="M60,27.31c0-1.31.2-3.4-1.25-3.82V23.4h7c6.51,0,10.56,3.54,10.56,9.22S72,42.18,65.6,42.18H58.75V42.1c1.43-1,1.25-2.34,1.25-4Zm2.91,12.62a10.37,10.37,0,0,0,2.08.21C69.25,40.13,73,37.9,73,33s-2.8-7.51-7.56-7.51a11.29,11.29,0,0,0-2.57.31Z"/><path class="cls-1" d="M81.9,39.74l3.63.34a7.12,7.12,0,0,0,5.28-1.68h.09l-1.29,3.74H77.71v-.09c1.46-.51,1.29-2.63,1.29-3.91V27.38c0-1.31.17-3.39-1.29-3.94v-.09h9.14a2.88,2.88,0,0,0,1.35-.15h.08v3.34h-.08a4,4,0,0,0-3.37-1.14,15.51,15.51,0,0,0-2.91.2v5.31H85.3a2.93,2.93,0,0,0,1.26-.17h.08v3h-.08C86.1,32.95,84.9,33,84,33H81.9Z"/><path class="cls-1" d="M110.56,25.17a5,5,0,0,0,.43-1.77v0h4.94v.09c-.68.2-.88,1-.88,1.68l1.88,14c.17,1.35.31,2.11,1.46,2.92v.08h-5.51v-.08c1-.31,1.17-1.17,1.17-2.14l-1.62-13.76L106,42.52a6.83,6.83,0,0,1-2.51-3.46L98.09,26.19,96.46,38.47c-.23,1.73-.43,3,.91,3.6v.08H92.72v-.08c1.2-1.06,1.37-2.46,1.6-4l1.63-12c.11-.8.42-1.95-.89-2.66v-.09h5v0a3.35,3.35,0,0,0,.4,1.29l5.37,12.59Z"/><path class="cls-1" d="M128.46,38.47c0,1.71,0,2.57,1.45,3.63v.08h-5.57V42.1c1.4-.71,1.2-2.57,1.2-3.92V34l-4.74-7.62a6.93,6.93,0,0,0-2.71-2.94h2.6a2.45,2.45,0,0,1,2.14.8l4.56,7.45,3.54-5.31c.49-.71,1.14-2.09-.45-2.85V23.4h5l-7,10.56Z"/><path class="cls-1" d="M2,53.4H0v-.22l.25,0a.86.86,0,0,0,.23,0A.31.31,0,0,0,.62,53a.36.36,0,0,0,0-.2V49.56a.44.44,0,0,0,0-.19.28.28,0,0,0-.17-.12l-.24-.07-.24,0v-.22H2v.22l-.23,0-.24.05a.24.24,0,0,0-.16.12.4.4,0,0,0,0,.19v3.24a.36.36,0,0,0,0,.18.31.31,0,0,0,.16.13l.22.06.25,0Z"/><path class="cls-1" d="M6.06,53.4H4.54v-.21H4.7l.14,0a.23.23,0,0,0,.13-.1.36.36,0,0,0,0-.18v-1.6a.76.76,0,0,0-.16-.51.49.49,0,0,0-.38-.18.87.87,0,0,0-.31.05,1.1,1.1,0,0,0-.25.13.72.72,0,0,0-.17.16L3.67,51v1.79a.33.33,0,0,0,0,.18.28.28,0,0,0,.13.11l.14,0,.16,0v.21H2.62v-.21h.15l.13,0a.22.22,0,0,0,.13-.1.35.35,0,0,0,0-.18V50.95a.44.44,0,0,0,0-.2.4.4,0,0,0-.13-.15.38.38,0,0,0-.14-.06l-.18,0v-.21l1-.07,0,0v.44h0l.19-.18a1.56,1.56,0,0,1,.21-.17,1.12,1.12,0,0,1,.28-.13,1.22,1.22,0,0,1,.36-.05.78.78,0,0,1,.66.28,1.17,1.17,0,0,1,.22.74v1.62a.36.36,0,0,0,0,.18.24.24,0,0,0,.13.1l.13,0,.15,0Z"/><path class="cls-1" d="M8.66,51.87a.79.79,0,0,1,.2.26.85.85,0,0,1,.07.36.88.88,0,0,1-.32.71,1.26,1.26,0,0,1-.84.27,1.27,1.27,0,0,1-.5-.1,1.39,1.39,0,0,1-.33-.18l-.06.21H6.64l0-1.08h.22a1.26,1.26,0,0,0,.11.29,1.37,1.37,0,0,0,.2.3,1.09,1.09,0,0,0,.29.23.79.79,0,0,0,.39.09.7.7,0,0,0,.47-.14.49.49,0,0,0,.16-.39.48.48,0,0,0-.05-.23.51.51,0,0,0-.15-.17A1.18,1.18,0,0,0,8,52.18l-.34-.12-.33-.12A1.35,1.35,0,0,1,7,51.76a.91.91,0,0,1-.23-.27.78.78,0,0,1-.09-.38A.85.85,0,0,1,7,50.46a1.07,1.07,0,0,1,.76-.27,1.58,1.58,0,0,1,.37,0,1.33,1.33,0,0,1,.31.11l.07-.16h.23l0,1H8.55a1,1,0,0,0-.29-.55.74.74,0,0,0-.54-.21.59.59,0,0,0-.41.13.4.4,0,0,0-.15.31.52.52,0,0,0,0,.24.45.45,0,0,0,.15.16,1.24,1.24,0,0,0,.24.12l.36.13a2.9,2.9,0,0,1,.39.15A1.31,1.31,0,0,1,8.66,51.87Z"/><path class="cls-1" d="M11.55,53.26l-.39.14a1.49,1.49,0,0,1-.45.06.67.67,0,0,1-.55-.2.87.87,0,0,1-.16-.56V50.6H9.44v-.3H10v-1h.58v1h.89v.3h-.89v1.74a3,3,0,0,0,0,.33.59.59,0,0,0,.07.23.32.32,0,0,0,.15.14.63.63,0,0,0,.27,0h.23l.22,0Z"/><path class="cls-1" d="M13.69,53.4h-1.5v-.21h.15l.13,0a.23.23,0,0,0,.13-.1.36.36,0,0,0,0-.18V50.95a.37.37,0,0,0,0-.19.4.4,0,0,0-.13-.14.59.59,0,0,0-.17-.06l-.21,0v-.21l1.1-.07,0,0v2.54a.37.37,0,0,0,0,.18.26.26,0,0,0,.13.11l.14,0,.15,0ZM13.29,49a.46.46,0,0,1-.12.31.38.38,0,0,1-.29.13.36.36,0,0,1-.28-.13.42.42,0,0,1-.12-.29.44.44,0,0,1,.12-.3.36.36,0,0,1,.28-.13.39.39,0,0,1,.29.12A.4.4,0,0,1,13.29,49Z"/><path class="cls-1" d="M16.26,53.26l-.39.14a1.47,1.47,0,0,1-.45.06.68.68,0,0,1-.55-.2.87.87,0,0,1-.16-.56V50.6h-.56v-.3h.58v-1h.57v1h.89v.3h-.89v1.74c0,.13,0,.24,0,.33a.61.61,0,0,0,.07.23.33.33,0,0,0,.15.14.64.64,0,0,0,.27,0H16l.22,0Z"/><path class="cls-1" d="M20.3,53.34l-1,.07,0,0V53h0l-.17.17a1.19,1.19,0,0,1-.22.16,1.39,1.39,0,0,1-.28.13,1.23,1.23,0,0,1-.37,0,.75.75,0,0,1-.63-.27,1.23,1.23,0,0,1-.22-.78V50.93a.36.36,0,0,0-.17-.32.38.38,0,0,0-.14-.05l-.18,0v-.21l1-.08,0,0v2.16a.74.74,0,0,0,.15.51.46.46,0,0,0,.36.17.84.84,0,0,0,.31-.05A.83.83,0,0,0,19,53a1,1,0,0,0,.15-.14.81.81,0,0,0,.1-.14V50.91a.37.37,0,0,0,0-.18.41.41,0,0,0-.12-.14.36.36,0,0,0-.17,0h-.25v-.21l1.13-.08,0,0v2.47a.37.37,0,0,0,0,.18.45.45,0,0,0,.12.13l.14,0h.17Z"/><path class="cls-1" d="M22.61,53.26l-.39.14a1.47,1.47,0,0,1-.45.06.67.67,0,0,1-.55-.2.87.87,0,0,1-.16-.56V50.6h-.56v-.3h.57v-1h.57v1h.89v.3h-.89v1.74a2.77,2.77,0,0,0,0,.33.65.65,0,0,0,.07.23.32.32,0,0,0,.15.14.64.64,0,0,0,.27,0h.23l.22,0Z"/><path class="cls-1" d="M25.82,52.66a1.6,1.6,0,0,1-.52.59,1.33,1.33,0,0,1-.75.22,1.53,1.53,0,0,1-.66-.13,1.3,1.3,0,0,1-.47-.36,1.54,1.54,0,0,1-.27-.53,2.23,2.23,0,0,1-.09-.64,1.9,1.9,0,0,1,.1-.6,1.7,1.7,0,0,1,.28-.53,1.36,1.36,0,0,1,.45-.36,1.28,1.28,0,0,1,.6-.14,1.45,1.45,0,0,1,.58.11,1,1,0,0,1,.39.29,1.16,1.16,0,0,1,.22.42,1.88,1.88,0,0,1,.07.52v.21H23.68a2.46,2.46,0,0,0,.06.56,1.33,1.33,0,0,0,.18.44.88.88,0,0,0,.32.29,1,1,0,0,0,.47.11A.88.88,0,0,0,25.2,53a1.31,1.31,0,0,0,.39-.48Zm-.7-1.19a2.52,2.52,0,0,0,0-.38,1.14,1.14,0,0,0-.1-.34.63.63,0,0,0-.2-.24.53.53,0,0,0-.32-.09.68.68,0,0,0-.55.28,1.28,1.28,0,0,0-.24.77Z"/><path class="cls-1" d="M31.42,51.81a2.07,2.07,0,0,1-.1.65A1.59,1.59,0,0,1,31,53a1.37,1.37,0,0,1-.51.38,1.64,1.64,0,0,1-.64.12,1.45,1.45,0,0,1-.57-.11,1.43,1.43,0,0,1-.48-.33,1.59,1.59,0,0,1-.33-.52,1.85,1.85,0,0,1-.12-.68,1.7,1.7,0,0,1,.42-1.19,1.56,1.56,0,0,1,2.19,0A1.62,1.62,0,0,1,31.42,51.81Zm-.65,0a2.77,2.77,0,0,0,0-.5,1.54,1.54,0,0,0-.14-.45.86.86,0,0,0-.26-.31.66.66,0,0,0-.4-.12.72.72,0,0,0-.42.12.91.91,0,0,0-.28.33,1.48,1.48,0,0,0-.14.44,3,3,0,0,0,0,.48,3,3,0,0,0,0,.56,1.63,1.63,0,0,0,.16.46.88.88,0,0,0,.27.32.68.68,0,0,0,.4.11.7.7,0,0,0,.62-.38A2,2,0,0,0,30.76,51.82Z"/><path class="cls-1" d="M34.44,48.89a.38.38,0,0,1-.08.24.27.27,0,0,1-.23.1.36.36,0,0,1-.17,0,.53.53,0,0,1-.14-.11,1,1,0,0,1-.12-.16l-.09-.14c-.14,0-.25.1-.33.29a2.57,2.57,0,0,0-.12.91v.32H34v.3h-.8v2.23a.33.33,0,0,0,0,.18.26.26,0,0,0,.13.1l.2,0,.22,0v.21H32.13v-.21h.15l.13,0a.24.24,0,0,0,.13-.1.36.36,0,0,0,0-.18V50.6H32v-.3h.62v-.2A1.73,1.73,0,0,1,33,49a1.15,1.15,0,0,1,.92-.44.68.68,0,0,1,.42.11A.33.33,0,0,1,34.44,48.89Z"/><path class="cls-1" d="M43.25,49.14l-.18,0a.85.85,0,0,0-.19.09.58.58,0,0,0-.18.16.81.81,0,0,0-.12.25l-.52,1.7-.64,2.07h-.29L40,50l-1.17,3.45h-.28l-.65-2.29-.45-1.59a.57.57,0,0,0-.08-.17.61.61,0,0,0-.15-.14.59.59,0,0,0-.18-.08l-.19,0v-.22h1.83v.22a2.62,2.62,0,0,0-.41,0c-.11,0-.17.06-.17.12a.53.53,0,0,0,0,.08l0,.08c0,.19.13.49.26.92l.55,1.92L40,49h.31l1.13,3.4L41.86,51q.16-.59.27-1c.05-.19.08-.33.09-.4a1.09,1.09,0,0,0,0-.18c0-.07,0-.13-.15-.18a1.41,1.41,0,0,0-.48-.1v-.22h1.62Z"/><path class="cls-1" d="M45.95,52.66a1.58,1.58,0,0,1-.52.59,1.34,1.34,0,0,1-.76.22,1.52,1.52,0,0,1-.66-.13,1.32,1.32,0,0,1-.47-.36,1.5,1.5,0,0,1-.27-.53,2.26,2.26,0,0,1-.09-.64,1.9,1.9,0,0,1,.1-.6,1.66,1.66,0,0,1,.28-.53,1.33,1.33,0,0,1,.45-.36,1.28,1.28,0,0,1,.6-.14,1.45,1.45,0,0,1,.58.11,1,1,0,0,1,.39.29,1.19,1.19,0,0,1,.22.42,1.84,1.84,0,0,1,.07.52v.21H43.81a2.46,2.46,0,0,0,.06.56,1.36,1.36,0,0,0,.18.44.87.87,0,0,0,.32.29,1,1,0,0,0,.47.11.88.88,0,0,0,.49-.13,1.3,1.3,0,0,0,.39-.48Zm-.7-1.19a2.53,2.53,0,0,0,0-.38,1.12,1.12,0,0,0-.1-.34.65.65,0,0,0-.2-.24.54.54,0,0,0-.33-.09.68.68,0,0,0-.55.28,1.29,1.29,0,0,0-.24.77Z"/><path class="cls-1" d="M49.73,51.84A1.66,1.66,0,0,1,49.29,53a1.36,1.36,0,0,1-1,.48,1.61,1.61,0,0,1-.5-.08,2.14,2.14,0,0,1-.47-.21l-.23.36-.2,0c0-.16,0-.34,0-.56s0-.43,0-.63V49.24a.5.5,0,0,0,0-.21.33.33,0,0,0-.12-.15.48.48,0,0,0-.2-.06l-.23,0v-.2l1.14-.07,0,0v2.05h0a1.36,1.36,0,0,1,.43-.31,1.13,1.13,0,0,1,.46-.1,1.21,1.21,0,0,1,1,.45A1.77,1.77,0,0,1,49.73,51.84Zm-.66,0a2.29,2.29,0,0,0-.05-.48,1.34,1.34,0,0,0-.16-.42.9.9,0,0,0-.28-.3.75.75,0,0,0-.42-.11.82.82,0,0,0-.39.09,1,1,0,0,0-.3.24v1.81a.73.73,0,0,0,.07.18.81.81,0,0,0,.15.19.76.76,0,0,0,.22.14.69.69,0,0,0,.29.06.71.71,0,0,0,.62-.37A1.88,1.88,0,0,0,49.07,51.86Z"/><path class="cls-1" d="M55.86,51.18a2.16,2.16,0,0,1-.21,1,2,2,0,0,1-.56.69,2.44,2.44,0,0,1-.78.4,3,3,0,0,1-.89.13H51.56v-.22l.24,0,.19,0a.27.27,0,0,0,.14-.12.41.41,0,0,0,0-.19V49.57a.46.46,0,0,0,0-.19.27.27,0,0,0-.14-.14l-.21-.07-.2,0v-.22h2a2.63,2.63,0,0,1,.8.12,2.35,2.35,0,0,1,.68.34,2,2,0,0,1,.62.73A2.4,2.4,0,0,1,55.86,51.18Zm-.77,0a2.62,2.62,0,0,0-.12-.81,1.84,1.84,0,0,0-.35-.63,1.5,1.5,0,0,0-.54-.41,1.65,1.65,0,0,0-.71-.15h-.53v3.44A.44.44,0,0,0,53,53a.94.94,0,0,0,.51.11,1.61,1.61,0,0,0,.7-.14,1.25,1.25,0,0,0,.49-.39A1.74,1.74,0,0,0,55,52,3.25,3.25,0,0,0,55.09,51.18Z"/><path class="cls-1" d="M59.29,52.66a1.59,1.59,0,0,1-.52.59,1.33,1.33,0,0,1-.76.22,1.53,1.53,0,0,1-.66-.13,1.3,1.3,0,0,1-.47-.36,1.52,1.52,0,0,1-.27-.53,2.23,2.23,0,0,1-.09-.64,1.87,1.87,0,0,1,.1-.6,1.66,1.66,0,0,1,.28-.53,1.32,1.32,0,0,1,.45-.36,1.28,1.28,0,0,1,.6-.14,1.45,1.45,0,0,1,.58.11,1,1,0,0,1,.39.29,1.14,1.14,0,0,1,.22.42,1.84,1.84,0,0,1,.07.52v.21H57.15a2.46,2.46,0,0,0,.06.56,1.36,1.36,0,0,0,.18.44.89.89,0,0,0,.32.29,1,1,0,0,0,.47.11.88.88,0,0,0,.49-.13,1.3,1.3,0,0,0,.39-.48Zm-.7-1.19a2.52,2.52,0,0,0,0-.38,1.14,1.14,0,0,0-.1-.34.64.64,0,0,0-.2-.24.53.53,0,0,0-.32-.09.68.68,0,0,0-.55.28,1.27,1.27,0,0,0-.24.77Z"/><path class="cls-1" d="M62,51.87a.77.77,0,0,1,.2.26.84.84,0,0,1,.07.36.89.89,0,0,1-.32.71,1.26,1.26,0,0,1-.84.27,1.28,1.28,0,0,1-.5-.1,1.38,1.38,0,0,1-.33-.18l-.06.21H60l0-1.08h.22a1.25,1.25,0,0,0,.11.29,1.36,1.36,0,0,0,.2.3,1.1,1.1,0,0,0,.29.23.79.79,0,0,0,.39.09.7.7,0,0,0,.47-.14.49.49,0,0,0,.16-.39.47.47,0,0,0-.05-.23.51.51,0,0,0-.15-.17,1.19,1.19,0,0,0-.26-.13L61,52.06l-.33-.12a1.32,1.32,0,0,1-.31-.18.89.89,0,0,1-.23-.27.77.77,0,0,1-.09-.38.85.85,0,0,1,.28-.65,1.07,1.07,0,0,1,.76-.27,1.58,1.58,0,0,1,.37,0,1.3,1.3,0,0,1,.31.11l.07-.16h.23l0,1h-.22a1,1,0,0,0-.29-.55.74.74,0,0,0-.54-.21.59.59,0,0,0-.41.13.41.41,0,0,0-.15.31.52.52,0,0,0,0,.24.44.44,0,0,0,.15.16,1.22,1.22,0,0,0,.24.12l.36.13a2.76,2.76,0,0,1,.39.15A1.27,1.27,0,0,1,62,51.87Z"/><path class="cls-1" d="M64.5,53.4H63v-.21h.15l.13,0a.22.22,0,0,0,.13-.1.35.35,0,0,0,0-.18V50.95a.38.38,0,0,0,0-.19.4.4,0,0,0-.13-.14.62.62,0,0,0-.17-.06l-.21,0v-.21l1.1-.07,0,0v2.54a.38.38,0,0,0,0,.18.27.27,0,0,0,.13.11l.13,0,.15,0ZM64.1,49a.46.46,0,0,1-.12.31.37.37,0,0,1-.29.13.37.37,0,0,1-.28-.13.41.41,0,0,1-.12-.29.43.43,0,0,1,.12-.3.37.37,0,0,1,.28-.13.39.39,0,0,1,.29.12A.39.39,0,0,1,64.1,49Z"/><path class="cls-1" d="M67.74,53.07a.91.91,0,0,1,.2.27.87.87,0,0,1,.07.38.92.92,0,0,1-.4.76,1.63,1.63,0,0,1-.5.23,2.74,2.74,0,0,1-.73.08,2.14,2.14,0,0,1-1.06-.21A.66.66,0,0,1,65,54a.6.6,0,0,1,.25-.51,1.13,1.13,0,0,1,.64-.2v0l-.2-.07a.76.76,0,0,1-.17-.1.52.52,0,0,1-.13-.16.44.44,0,0,1-.05-.22.47.47,0,0,1,.12-.31.93.93,0,0,1,.36-.24v0a1.24,1.24,0,0,1-.47-.36.84.84,0,0,1-.17-.52.91.91,0,0,1,.33-.73,1.24,1.24,0,0,1,.84-.28,1.37,1.37,0,0,1,.28,0l.29.07H68v.3h-.73v0a.89.89,0,0,1,.17.3,1,1,0,0,1,.06.32.88.88,0,0,1-.33.69,1.15,1.15,0,0,1-.78.28H66a.52.52,0,0,0-.15.09.22.22,0,0,0-.08.18.23.23,0,0,0,.07.18.35.35,0,0,0,.16.08l.21,0h.25l.38,0,.34,0a.83.83,0,0,1,.29.07A.89.89,0,0,1,67.74,53.07Zm-.25.76a.49.49,0,0,0-.08-.29.42.42,0,0,0-.25-.16l-.36,0-.64,0a.86.86,0,0,0-.48.22.57.57,0,0,0-.14.4.48.48,0,0,0,0,.21.5.5,0,0,0,.16.19.9.9,0,0,0,.3.13,1.68,1.68,0,0,0,.45.05,1.3,1.3,0,0,0,.73-.18A.61.61,0,0,0,67.5,53.84Zm-.61-2.61a1,1,0,0,0-.15-.59.48.48,0,0,0-.42-.22.5.5,0,0,0-.25.06.46.46,0,0,0-.17.18.71.71,0,0,0-.09.25,1.63,1.63,0,0,0,0,.3,1,1,0,0,0,.15.57.46.46,0,0,0,.4.22.47.47,0,0,0,.42-.22A1,1,0,0,0,66.89,51.23Z"/><path class="cls-1" d="M72,53.4H70.48v-.21h.16l.14,0a.23.23,0,0,0,.13-.1.36.36,0,0,0,0-.18v-1.6a.75.75,0,0,0-.16-.51.49.49,0,0,0-.38-.18.87.87,0,0,0-.31.05,1.09,1.09,0,0,0-.25.13.7.7,0,0,0-.17.16l-.09.13v1.79a.32.32,0,0,0,0,.18.29.29,0,0,0,.13.11l.14,0,.16,0v.21H68.56v-.21h.15l.13,0a.23.23,0,0,0,.13-.1.36.36,0,0,0,0-.18V50.95a.45.45,0,0,0,0-.2.37.37,0,0,0-.13-.15.39.39,0,0,0-.14-.06l-.17,0v-.21l1-.07,0,0v.44h0l.19-.18a1.54,1.54,0,0,1,.21-.17,1.12,1.12,0,0,1,.28-.13,1.21,1.21,0,0,1,.36-.05.78.78,0,0,1,.66.28,1.19,1.19,0,0,1,.22.74v1.62a.37.37,0,0,0,0,.18.26.26,0,0,0,.13.1l.13,0,.15,0Z"/><path class="cls-1" d="M79.14,50.78a1.81,1.81,0,0,0-.37.08.57.57,0,0,0-.29.18.89.89,0,0,0-.13.22l-.16.35L78,52a2.22,2.22,0,0,1-.25.39c.08.1.19.21.31.33a2,2,0,0,0,.31.26,1.28,1.28,0,0,0,.36.12,2.46,2.46,0,0,0,.38.06v.22h-1.3l-.47-.54-.24.24a1.82,1.82,0,0,1-.28.21,1.72,1.72,0,0,1-.33.15,1.26,1.26,0,0,1-.39.05,1.65,1.65,0,0,1-.46-.07,1.24,1.24,0,0,1-.42-.22,1.09,1.09,0,0,1-.29-.37,1.18,1.18,0,0,1-.12-.54A1.27,1.27,0,0,1,75,51.6a2.49,2.49,0,0,1,.77-.67,5.84,5.84,0,0,1-.4-.58,1.09,1.09,0,0,1-.14-.55.91.91,0,0,1,.09-.4,1,1,0,0,1,.24-.32,1.1,1.1,0,0,1,.35-.19,1.33,1.33,0,0,1,.42-.07,1.15,1.15,0,0,1,.44.08.9.9,0,0,1,.31.21.8.8,0,0,1,.17.28.9.9,0,0,1,.06.31,1,1,0,0,1-.23.65,2.2,2.2,0,0,1-.65.49c.2.27.39.51.58.73l.54.65a4,4,0,0,0,.33-.64,1.5,1.5,0,0,0,.12-.52c0-.07-.05-.12-.15-.16a2.54,2.54,0,0,0-.4-.11v-.22h1.69Zm-2,1.89-.66-.82q-.37-.44-.59-.75a1,1,0,0,0-.36.42,1.33,1.33,0,0,0-.11.54,1.05,1.05,0,0,0,.24.71.82.82,0,0,0,.65.28,1.08,1.08,0,0,0,.45-.1A.92.92,0,0,0,77.15,52.68Zm-.25-2.92a.77.77,0,0,0-.14-.49.49.49,0,0,0-.4-.17.47.47,0,0,0-.25.06.6.6,0,0,0-.17.15.63.63,0,0,0-.09.19.73.73,0,0,0,0,.18,1,1,0,0,0,.11.44,3.76,3.76,0,0,0,.35.54,1.35,1.35,0,0,0,.47-.4A.88.88,0,0,0,76.91,49.76Z"/><path class="cls-1" d="M84.7,51.34a1.08,1.08,0,0,1,.21.35,1.29,1.29,0,0,1,.07.44,1.24,1.24,0,0,1-.44,1,1.59,1.59,0,0,1-1.09.38,2,2,0,0,1-.6-.09,2.36,2.36,0,0,1-.52-.23l-.13.23h-.25l0-1.53h.25a3.73,3.73,0,0,0,.19.51,1.82,1.82,0,0,0,.28.43,1.27,1.27,0,0,0,.38.3,1.11,1.11,0,0,0,.51.11,1.18,1.18,0,0,0,.38-.06.69.69,0,0,0,.26-.16.64.64,0,0,0,.15-.24,1,1,0,0,0,0-.32.9.9,0,0,0-.15-.5.92.92,0,0,0-.45-.35l-.47-.18-.46-.19a1.47,1.47,0,0,1-.59-.45A1.16,1.16,0,0,1,82,50a1.08,1.08,0,0,1,.1-.47,1.22,1.22,0,0,1,.3-.39,1.33,1.33,0,0,1,.43-.26,1.58,1.58,0,0,1,1.07,0,2.56,2.56,0,0,1,.45.22l.13-.21h.25l0,1.49h-.25c0-.17-.1-.33-.16-.49a1.72,1.72,0,0,0-.22-.42,1,1,0,0,0-.33-.29,1,1,0,0,0-.48-.11.73.73,0,0,0-.51.19.62.62,0,0,0-.21.47.81.81,0,0,0,.14.48,1,1,0,0,0,.39.31l.45.19.43.17a3.28,3.28,0,0,1,.36.19A1.29,1.29,0,0,1,84.7,51.34Z"/><path class="cls-1" d="M88.62,51.81a2.07,2.07,0,0,1-.1.65,1.56,1.56,0,0,1-.3.54,1.38,1.38,0,0,1-.51.38,1.63,1.63,0,0,1-.64.12,1.44,1.44,0,0,1-.57-.11,1.41,1.41,0,0,1-.48-.33,1.56,1.56,0,0,1-.33-.52,1.83,1.83,0,0,1-.12-.68A1.7,1.7,0,0,1,86,50.66a1.55,1.55,0,0,1,2.19,0A1.61,1.61,0,0,1,88.62,51.81Zm-.65,0a2.7,2.7,0,0,0,0-.5,1.57,1.57,0,0,0-.14-.45.86.86,0,0,0-.27-.31.66.66,0,0,0-.4-.12.71.71,0,0,0-.42.12.89.89,0,0,0-.28.33,1.48,1.48,0,0,0-.14.44,3,3,0,0,0,0,.48,3,3,0,0,0,0,.56,1.6,1.6,0,0,0,.16.46.89.89,0,0,0,.27.32.67.67,0,0,0,.4.11.7.7,0,0,0,.62-.38A2,2,0,0,0,88,51.82Z"/><path class="cls-1" d="M91.52,48.89a.38.38,0,0,1-.08.24.27.27,0,0,1-.23.1.36.36,0,0,1-.17,0,.56.56,0,0,1-.14-.11,1,1,0,0,1-.12-.16l-.09-.14q-.21,0-.33.29a2.63,2.63,0,0,0-.11.91v.32h.8v.3h-.8v2.23a.34.34,0,0,0,0,.18.26.26,0,0,0,.13.1l.2,0,.22,0v.21H89.21v-.21h.15l.13,0a.23.23,0,0,0,.13-.1.35.35,0,0,0,0-.18V50.6H89v-.3h.62v-.2A1.72,1.72,0,0,1,90,49a1.15,1.15,0,0,1,.92-.44.68.68,0,0,1,.42.11A.33.33,0,0,1,91.52,48.89Z"/><path class="cls-1" d="M93.87,53.26l-.39.14a1.48,1.48,0,0,1-.45.06.67.67,0,0,1-.55-.2.88.88,0,0,1-.16-.56V50.6h-.56v-.3h.57v-1h.57v1h.89v.3h-.89v1.74c0,.13,0,.24,0,.33a.61.61,0,0,0,.07.23.32.32,0,0,0,.15.14.63.63,0,0,0,.27,0h.23l.22,0Z"/><path class="cls-1" d="M99.2,50.49a.65.65,0,0,0-.29.11.56.56,0,0,0-.22.29l-.3.88-.31.93-.12.35c0,.13-.08.25-.11.36h-.27l-.84-2.29-.84,2.29h-.26L95.19,52l-.4-1.2a.42.42,0,0,0-.19-.23.69.69,0,0,0-.28-.1v-.21h1.39v.22l-.23,0c-.08,0-.12.06-.12.1a.22.22,0,0,0,0,.05l0,.09.23.74L96,52.58l.79-2.24h.3l.81,2.21c.09-.28.18-.55.27-.82s.17-.51.24-.74l0-.15a.46.46,0,0,0,0-.13.13.13,0,0,0,0-.1l-.12-.07-.14,0H98v-.2H99.2Z"/><path class="cls-1" d="M102.41,53.34l-.26.09a.92.92,0,0,1-.25,0,.62.62,0,0,1-.39-.11.54.54,0,0,1-.19-.34h0a1.53,1.53,0,0,1-.44.35,1.24,1.24,0,0,1-.57.12.8.8,0,0,1-.58-.21.74.74,0,0,1-.22-.56,1,1,0,0,1,.05-.32.78.78,0,0,1,.15-.25A.76.76,0,0,1,99.9,52l.24-.12.58-.2a4.44,4.44,0,0,0,.59-.23v-.31a1.31,1.31,0,0,0,0-.16.65.65,0,0,0-.08-.22.62.62,0,0,0-.18-.2.53.53,0,0,0-.33-.09.74.74,0,0,0-.27,0,.5.5,0,0,0-.17.1.93.93,0,0,0,0,.19.94.94,0,0,1,0,.23.27.27,0,0,1-.1.2.39.39,0,0,1-.28.09.26.26,0,0,1-.23-.11.45.45,0,0,1-.07-.25.44.44,0,0,1,.1-.28,1,1,0,0,1,.27-.24,1.5,1.5,0,0,1,.34-.15,1.35,1.35,0,0,1,.4-.06,2.65,2.65,0,0,1,.46,0,.86.86,0,0,1,.36.16.73.73,0,0,1,.25.32,1.38,1.38,0,0,1,.08.52c0,.3,0,.57,0,.8s0,.49,0,.76a.39.39,0,0,0,0,.2.35.35,0,0,0,.13.12.33.33,0,0,0,.15,0h.21Zm-1.1-1.67-.47.15a1.86,1.86,0,0,0-.38.19.83.83,0,0,0-.25.25.63.63,0,0,0-.09.35.49.49,0,0,0,.14.39.5.5,0,0,0,.35.12A.71.71,0,0,0,101,53a1.15,1.15,0,0,0,.29-.26Z"/><path class="cls-1" d="M105.17,50.69a.52.52,0,0,1-.08.28.26.26,0,0,1-.24.12.37.37,0,0,1-.27-.09.28.28,0,0,1-.09-.2.71.71,0,0,1,0-.13s0-.08,0-.11a.71.71,0,0,0-.35.12,1,1,0,0,0-.34.34v1.81a.34.34,0,0,0,0,.18.25.25,0,0,0,.13.1l.2,0,.22,0v.21h-1.64v-.21h.15l.13,0a.23.23,0,0,0,.13-.1.36.36,0,0,0,0-.18V50.95a.44.44,0,0,0,0-.19.36.36,0,0,0-.13-.15.39.39,0,0,0-.14-.06l-.18,0v-.21l1-.07,0,0v.44h0a1.42,1.42,0,0,1,.44-.39.92.92,0,0,1,.44-.13.43.43,0,0,1,.32.13A.49.49,0,0,1,105.17,50.69Z"/><path class="cls-1" d="M108.39,52.66a1.57,1.57,0,0,1-.52.59,1.33,1.33,0,0,1-.75.22,1.54,1.54,0,0,1-.66-.13A1.28,1.28,0,0,1,106,53a1.51,1.51,0,0,1-.27-.53,2.23,2.23,0,0,1-.09-.64,1.87,1.87,0,0,1,.1-.6,1.66,1.66,0,0,1,.28-.53,1.34,1.34,0,0,1,.45-.36,1.28,1.28,0,0,1,.6-.14,1.46,1.46,0,0,1,.58.11,1,1,0,0,1,.39.29,1.16,1.16,0,0,1,.22.42,1.88,1.88,0,0,1,.07.52v.21h-2.06a2.46,2.46,0,0,0,.06.56,1.38,1.38,0,0,0,.18.44.89.89,0,0,0,.32.29,1,1,0,0,0,.47.11.87.87,0,0,0,.48-.13,1.3,1.3,0,0,0,.39-.48Zm-.7-1.19a2.65,2.65,0,0,0,0-.38,1.21,1.21,0,0,0-.1-.34.68.68,0,0,0-.2-.24.54.54,0,0,0-.33-.09.67.67,0,0,0-.55.28,1.26,1.26,0,0,0-.24.77Z"/><path class="cls-1" d="M113.56,51.34a1,1,0,0,1,.21.35,1.29,1.29,0,0,1,.07.44,1.25,1.25,0,0,1-.44,1,1.59,1.59,0,0,1-1.09.38,2,2,0,0,1-.6-.09,2.32,2.32,0,0,1-.52-.23l-.14.23h-.25l0-1.53H111a3.37,3.37,0,0,0,.19.51,1.79,1.79,0,0,0,.28.43,1.28,1.28,0,0,0,.38.3,1.11,1.11,0,0,0,.51.11,1.17,1.17,0,0,0,.38-.06A.67.67,0,0,0,113,53a.64.64,0,0,0,.15-.24,1,1,0,0,0,0-.32.91.91,0,0,0-.15-.5.93.93,0,0,0-.45-.35l-.47-.18-.46-.19a1.48,1.48,0,0,1-.59-.45,1.16,1.16,0,0,1-.21-.72,1.1,1.1,0,0,1,.1-.47,1.26,1.26,0,0,1,.3-.39,1.34,1.34,0,0,1,.43-.26,1.58,1.58,0,0,1,1.07,0,2.56,2.56,0,0,1,.45.22l.13-.21h.25l0,1.49h-.26c0-.17-.1-.33-.16-.49a1.76,1.76,0,0,0-.23-.42,1,1,0,0,0-.33-.29,1,1,0,0,0-.48-.11.74.74,0,0,0-.51.19.61.61,0,0,0-.21.47.81.81,0,0,0,.14.48,1,1,0,0,0,.39.31l.45.19.43.17a3.29,3.29,0,0,1,.37.19A1.42,1.42,0,0,1,113.56,51.34Z"/><path class="cls-1" d="M117.25,52.66a1.61,1.61,0,0,1-.53.59,1.33,1.33,0,0,1-.75.22,1.54,1.54,0,0,1-.66-.13,1.31,1.31,0,0,1-.47-.36,1.57,1.57,0,0,1-.27-.53,2.27,2.27,0,0,1-.09-.64,1.93,1.93,0,0,1,.1-.6,1.66,1.66,0,0,1,.28-.53,1.38,1.38,0,0,1,.45-.36,1.29,1.29,0,0,1,.6-.14,1.46,1.46,0,0,1,.58.11,1,1,0,0,1,.39.29,1.16,1.16,0,0,1,.22.42,1.84,1.84,0,0,1,.07.52v.21h-2.06a2.52,2.52,0,0,0,.06.56,1.34,1.34,0,0,0,.18.44.88.88,0,0,0,.32.29,1,1,0,0,0,.47.11.87.87,0,0,0,.48-.13,1.32,1.32,0,0,0,.39-.48Zm-.7-1.19a2.65,2.65,0,0,0,0-.38,1.21,1.21,0,0,0-.1-.34.64.64,0,0,0-.2-.24.53.53,0,0,0-.32-.09.68.68,0,0,0-.55.28,1.28,1.28,0,0,0-.24.77Z"/><path class="cls-1" d="M120.15,50.69a.52.52,0,0,1-.08.28.27.27,0,0,1-.24.12.37.37,0,0,1-.27-.09.28.28,0,0,1-.09-.2.62.62,0,0,1,0-.13l0-.11a.71.71,0,0,0-.35.12,1,1,0,0,0-.34.34v1.81a.33.33,0,0,0,0,.18.26.26,0,0,0,.13.1l.21,0,.21,0v.21h-1.64v-.21h.15l.13,0a.22.22,0,0,0,.13-.1.33.33,0,0,0,0-.18V50.95a.42.42,0,0,0,0-.19.38.38,0,0,0-.13-.15.39.39,0,0,0-.14-.06l-.18,0v-.21l1-.07,0,0v.44h0a1.43,1.43,0,0,1,.43-.39.93.93,0,0,1,.44-.13.43.43,0,0,1,.32.13A.48.48,0,0,1,120.15,50.69Z"/><path class="cls-1" d="M124,50.48a.78.78,0,0,0-.27.1.62.62,0,0,0-.22.27l-.38.88-.41,1-.13.34-.13.38h-.25l-.55-1.35-.52-1.25a.48.48,0,0,0-.2-.22.85.85,0,0,0-.28-.1v-.21h1.44v.22l-.24,0c-.09,0-.14.06-.14.1l0,0,0,.09.37.9.38.93.29-.68q.17-.4.37-.9l.06-.16a.42.42,0,0,0,0-.15.13.13,0,0,0-.05-.1l-.12-.07-.14,0-.11,0v-.2H124Z"/><path class="cls-1" d="M126,53.4h-1.5v-.21h.15l.13,0a.23.23,0,0,0,.13-.1.36.36,0,0,0,0-.18V50.95a.39.39,0,0,0,0-.19.42.42,0,0,0-.13-.14.62.62,0,0,0-.17-.06l-.21,0v-.21l1.1-.07,0,0v2.54a.35.35,0,0,0,0,.18.25.25,0,0,0,.13.11l.13,0,.15,0ZM125.58,49a.46.46,0,0,1-.12.31.37.37,0,0,1-.29.13.37.37,0,0,1-.28-.13.42.42,0,0,1-.12-.29.44.44,0,0,1,.12-.3.37.37,0,0,1,.28-.13.41.41,0,0,1,.41.41Z"/><path class="cls-1" d="M128,53.48A1.32,1.32,0,0,1,127,53a1.8,1.8,0,0,1-.38-1.2,1.75,1.75,0,0,1,.1-.61,1.67,1.67,0,0,1,.3-.52,1.41,1.41,0,0,1,1.08-.5,1.19,1.19,0,0,1,.74.22.71.71,0,0,1,.29.6.52.52,0,0,1-.08.28.27.27,0,0,1-.25.12.41.41,0,0,1-.29-.09.28.28,0,0,1-.1-.21,1.13,1.13,0,0,1,0-.29,1.38,1.38,0,0,0,0-.22.27.27,0,0,0-.17-.13.85.85,0,0,0-.24,0,.64.64,0,0,0-.29.07.73.73,0,0,0-.27.24,1.33,1.33,0,0,0-.19.43,2.54,2.54,0,0,0-.07.64,1.63,1.63,0,0,0,.26,1,.8.8,0,0,0,.68.37.84.84,0,0,0,.51-.15,1.43,1.43,0,0,0,.38-.45l.2.13a1.62,1.62,0,0,1-.55.59A1.29,1.29,0,0,1,128,53.48Z"/><path class="cls-1" d="M132.64,52.66a1.59,1.59,0,0,1-.52.59,1.33,1.33,0,0,1-.75.22,1.54,1.54,0,0,1-.66-.13,1.27,1.27,0,0,1-.46-.36,1.54,1.54,0,0,1-.28-.53,2.27,2.27,0,0,1-.09-.64,1.9,1.9,0,0,1,.1-.6,1.72,1.72,0,0,1,.28-.53,1.38,1.38,0,0,1,.45-.36,1.28,1.28,0,0,1,.6-.14,1.45,1.45,0,0,1,.58.11,1,1,0,0,1,.4.29,1.17,1.17,0,0,1,.22.42,1.84,1.84,0,0,1,.07.52v.21H130.5a2.46,2.46,0,0,0,.06.56,1.4,1.4,0,0,0,.18.44.88.88,0,0,0,.32.29,1,1,0,0,0,.47.11A.87.87,0,0,0,132,53a1.29,1.29,0,0,0,.39-.48Zm-.7-1.19a2.64,2.64,0,0,0,0-.38,1.17,1.17,0,0,0-.1-.34.65.65,0,0,0-.2-.24.53.53,0,0,0-.32-.09.68.68,0,0,0-.55.28,1.28,1.28,0,0,0-.24.77Z"/><path class="cls-1" d="M135.28,51.87a.78.78,0,0,1,.2.26.84.84,0,0,1,.07.36.89.89,0,0,1-.32.71,1.26,1.26,0,0,1-.84.27,1.28,1.28,0,0,1-.5-.1,1.32,1.32,0,0,1-.33-.18l-.06.21h-.24l0-1.08h.22a1.21,1.21,0,0,0,.11.29,1.33,1.33,0,0,0,.2.3,1.09,1.09,0,0,0,.29.23.79.79,0,0,0,.39.09.71.71,0,0,0,.47-.14.49.49,0,0,0,.16-.39.47.47,0,0,0-.05-.23.51.51,0,0,0-.15-.17,1.24,1.24,0,0,0-.26-.13l-.34-.12-.33-.12a1.33,1.33,0,0,1-.31-.18.88.88,0,0,1-.23-.27.76.76,0,0,1-.09-.38.85.85,0,0,1,.28-.65,1.07,1.07,0,0,1,.76-.27,1.59,1.59,0,0,1,.38,0,1.36,1.36,0,0,1,.31.11l.07-.16h.23l0,1h-.22a1,1,0,0,0-.29-.55.73.73,0,0,0-.54-.21.59.59,0,0,0-.41.13.41.41,0,0,0-.15.31.52.52,0,0,0,0,.24.43.43,0,0,0,.15.16,1.2,1.2,0,0,0,.24.12l.36.13a2.79,2.79,0,0,1,.39.15A1.32,1.32,0,0,1,135.28,51.87Z"/></g></g></svg>