<svg xmlns="http://www.w3.org/2000/svg" viewBox="0 0 1079.9 246"><defs><style>.cls-1{fill:#fff;}.cls-2,.cls-3{fill:none;stroke:#000;stroke-miterlimit:10;}.cls-2{stroke-width:12px;}.cls-3{stroke-width:9px;}</style></defs><title>Asset 1</title><g id="Layer_2" data-name="Layer 2"><g id="Layer_1-2" data-name="Layer 1"><path d="M260.7,85.3a72.18,72.18,0,0,1,3.7-24.1A53.38,53.38,0,0,1,274.9,43a46,46,0,0,1,15.8-11.5,48.34,48.34,0,0,1,19.8-4,36.86,36.86,0,0,1,17.8,4.2A47.58,47.58,0,0,1,341,41.3l-8,9a34.48,34.48,0,0,0-9.9-7.6,26.34,26.34,0,0,0-12.4-2.8A32.79,32.79,0,0,0,296.2,43a30.28,30.28,0,0,0-11.1,9A44,44,0,0,0,278,66.2a64.12,64.12,0,0,0-2.5,18.7,66.22,66.22,0,0,0,2.5,19,43.93,43.93,0,0,0,7,14.4,31,31,0,0,0,10.9,9.2,30.54,30.54,0,0,0,14.4,3.2,29.81,29.81,0,0,0,14-3.2,45.59,45.59,0,0,0,11.5-9.2l8,8.7A46.59,46.59,0,0,1,329,138.9a41.81,41.81,0,0,1-19,4.2,48.51,48.51,0,0,1-19.5-3.9A44.31,44.31,0,0,1,275,127.9a52.77,52.77,0,0,1-10.3-18.2A69,69,0,0,1,260.7,85.3Z"/><path d="M347.9,99.9A50,50,0,0,1,351,81.5a42.75,42.75,0,0,1,8.4-13.7,35.39,35.39,0,0,1,12.2-8.5,37.7,37.7,0,0,1,29,0,36.36,36.36,0,0,1,12.2,8.5,41.69,41.69,0,0,1,8.4,13.7,50.36,50.36,0,0,1,3.1,18.4,50.18,50.18,0,0,1-3.1,18.3,41.21,41.21,0,0,1-8.4,13.6,35.11,35.11,0,0,1-12.2,8.4,37.7,37.7,0,0,1-29,0,36.06,36.06,0,0,1-12.2-8.4,41.21,41.21,0,0,1-8.4-13.6A52.38,52.38,0,0,1,347.9,99.9Zm14.5,0a46.33,46.33,0,0,0,1.7,12.9,28.56,28.56,0,0,0,4.8,9.9,22.55,22.55,0,0,0,7.6,6.5,21,21,0,0,0,9.7,2.3,21.33,21.33,0,0,0,9.7-2.3,22.38,22.38,0,0,0,7.6-6.5,30.42,30.42,0,0,0,4.8-9.9,50.17,50.17,0,0,0,0-25.9,30.52,30.52,0,0,0-4.8-10.1,21.49,21.49,0,0,0-7.6-6.5,21,21,0,0,0-9.7-2.3,21.33,21.33,0,0,0-9.7,2.3,22.38,22.38,0,0,0-7.6,6.5,30.52,30.52,0,0,0-4.8,10.1A47.59,47.59,0,0,0,362.4,99.9Z"/><path d="M431.7,99.9a51.67,51.67,0,0,1,3-18.1,43.61,43.61,0,0,1,7.9-13.7A36.84,36.84,0,0,1,454,59.4a31.85,31.85,0,0,1,13.6-3.1A29.47,29.47,0,0,1,480,58.8a52.83,52.83,0,0,1,10.7,7L490,51.7V20h14.1V141H492.5l-1.2-9.7h-.5a51.92,51.92,0,0,1-11.3,8.2,28.2,28.2,0,0,1-13.7,3.5c-10.4,0-18.7-3.7-24.9-11.2S431.7,113.7,431.7,99.9Zm14.5-.2c0,10,2,17.7,5.9,23.3s9.6,8.3,16.8,8.3a21.86,21.86,0,0,0,10.9-2.8,38.89,38.89,0,0,0,10.2-8.6V76.8a34.59,34.59,0,0,0-10.1-6.7,26.13,26.13,0,0,0-9.9-2,20,20,0,0,0-9.3,2.3,23.36,23.36,0,0,0-7.6,6.5,30.92,30.92,0,0,0-5.1,9.9A43.72,43.72,0,0,0,446.2,99.7Z"/><path d="M517.4,99.9a50.18,50.18,0,0,1,3.1-18.3,44.38,44.38,0,0,1,8.3-13.7,37.68,37.68,0,0,1,11.8-8.6,33,33,0,0,1,13.8-3,34.62,34.62,0,0,1,14,2.7,27.73,27.73,0,0,1,10.4,7.8A36.34,36.34,0,0,1,585.2,79a53.37,53.37,0,0,1,2.2,16,54.08,54.08,0,0,1-.5,7.7H531.1c.6,9,3.3,16,8.2,21.2s11.4,7.8,19.3,7.8a32.54,32.54,0,0,0,11-1.8,47.37,47.37,0,0,0,9.6-4.7l4.9,9.2a71.8,71.8,0,0,1-12.1,6,42,42,0,0,1-15.1,2.5,40.51,40.51,0,0,1-15.6-3,37.4,37.4,0,0,1-12.6-8.5,38.63,38.63,0,0,1-8.4-13.5A51.86,51.86,0,0,1,517.4,99.9Zm57.8-6.3q0-12.75-5.4-19.5c-3.6-4.5-8.6-6.7-15-6.7a20.13,20.13,0,0,0-8.4,1.8,22.53,22.53,0,0,0-7.2,5.1,27.19,27.19,0,0,0-5.4,8.2A36.12,36.12,0,0,0,531,93.6Z"/><path d="M600.2,29.5h34.3a79.63,79.63,0,0,1,16.8,1.7,35.73,35.73,0,0,1,13,5.5,25,25,0,0,1,8.3,10.1c2,4.2,3,9.3,3,15.5a36,36,0,0,1-3,15.3,28.64,28.64,0,0,1-8.4,10.7,37.65,37.65,0,0,1-13,6.4,62.05,62.05,0,0,1-16.7,2.1H614.4V141H600.1V29.5Zm32.5,55.8c9.9,0,17.1-1.8,21.8-5.5s7.1-9.5,7.1-17.4-2.4-13.6-7.2-16.7-12-4.7-21.7-4.7H614.5V85.4h18.2Z"/><path d="M687.9,58.4h11.6l1.2,15h.5A38.61,38.61,0,0,1,711.5,61a21,21,0,0,1,13.2-4.6,22.27,22.27,0,0,1,8.8,1.7l-2.7,12.2a23.09,23.09,0,0,0-3.7-1,24.18,24.18,0,0,0-4.2-.3c-3.5,0-7.2,1.4-11,4.2S704.8,81,702,88v53H688.1V58.4Z"/><path d="M730.6,99.9a50,50,0,0,1,3.1-18.4,42.75,42.75,0,0,1,8.4-13.7,35.39,35.39,0,0,1,12.2-8.5,37.7,37.7,0,0,1,29,0,36.36,36.36,0,0,1,12.2,8.5,41.69,41.69,0,0,1,8.4,13.7A50.36,50.36,0,0,1,807,99.9a50.18,50.18,0,0,1-3.1,18.3,41.21,41.21,0,0,1-8.4,13.6,35.11,35.11,0,0,1-12.2,8.4,37.7,37.7,0,0,1-29,0,36.06,36.06,0,0,1-12.2-8.4,41.21,41.21,0,0,1-8.4-13.6A50.18,50.18,0,0,1,730.6,99.9Zm14.5,0a46.33,46.33,0,0,0,1.7,12.9,28.56,28.56,0,0,0,4.8,9.9,22.55,22.55,0,0,0,7.6,6.5,21,21,0,0,0,9.7,2.3,21.33,21.33,0,0,0,9.7-2.3,22.38,22.38,0,0,0,7.6-6.5,30.42,30.42,0,0,0,4.8-9.9,50.17,50.17,0,0,0,0-25.9,30.52,30.52,0,0,0-4.8-10.1,21.49,21.49,0,0,0-7.6-6.5,21,21,0,0,0-9.7-2.3,21.33,21.33,0,0,0-9.7,2.3,22.38,22.38,0,0,0-7.6,6.5,30.52,30.52,0,0,0-4.8,10.1A44,44,0,0,0,745.1,99.9Z"/><path d="M820.4,58.4H832l1.2,11.9h.5a54.48,54.48,0,0,1,11.8-9.9,25.29,25.29,0,0,1,13.9-4c6.3,0,11.3,1.4,14.9,4.2a24.34,24.34,0,0,1,7.9,11.6,67.53,67.53,0,0,1,13-11.5,25.19,25.19,0,0,1,14.2-4.3c8.5,0,14.8,2.7,19,8.2s6.2,13.5,6.2,24.1v52.4H920.7V90.6c0-7.8-1.2-13.5-3.7-16.9s-6.3-5.2-11.6-5.2c-6.2,0-13.1,4.2-20.7,12.8v59.8H870.8V90.6c0-7.8-1.2-13.5-3.7-16.9s-6.4-5.2-11.7-5.2c-6.2,0-13.1,4.2-20.7,12.8v59.8H820.4Z"/><path d="M966.7,148v27.9H952.8V58.4h11.6l1.2,9.5h.5a61.3,61.3,0,0,1,12.3-8.2,30.43,30.43,0,0,1,14-3.4,31.77,31.77,0,0,1,14.1,3,27.1,27.1,0,0,1,10.2,8.5,39.88,39.88,0,0,1,6.2,13.3,66.92,66.92,0,0,1,2.1,17.4,57.53,57.53,0,0,1-2.9,18.8,42.08,42.08,0,0,1-7.8,14,33.07,33.07,0,0,1-11.4,8.8,31.76,31.76,0,0,1-13.6,3,27.75,27.75,0,0,1-11.5-2.5,57.18,57.18,0,0,1-11.5-7Zm0-25.3a36.16,36.16,0,0,0,10.9,6.7,27.41,27.41,0,0,0,9.4,2,20.1,20.1,0,0,0,9.4-2.3,22.07,22.07,0,0,0,7.5-6.5,31.8,31.8,0,0,0,4.9-10.3,49.09,49.09,0,0,0,1.8-13.8,59.29,59.29,0,0,0-1.2-12.4,29.66,29.66,0,0,0-3.8-9.6,18.38,18.38,0,0,0-6.8-6.2,20.66,20.66,0,0,0-9.9-2.2A22.28,22.28,0,0,0,978.3,71a61.61,61.61,0,0,0-11.5,8.3v43.4Z"/><path d="M1041,69.8h-12.2V59.3l12.9-.9,1.7-23.1h11.7V58.4h22.3V69.8h-22.3v45.9c0,5.1.9,9,2.8,11.8s5.2,4.2,9.9,4.2a16.89,16.89,0,0,0,4.8-.7c1.7-.5,3.2-1,4.6-1.5l2.7,10.5a65.38,65.38,0,0,1-7.4,2.1,36.13,36.13,0,0,1-7.9.9,27.89,27.89,0,0,1-11.1-2,19.55,19.55,0,0,1-7.3-5.6,21.81,21.81,0,0,1-4-8.7,48.69,48.69,0,0,1-1.2-11.2Z"/><circle class="cls-1" cx="151.9" cy="22.5" r="4.2"/><circle class="cls-1" cx="168" cy="22.5" r="4.2"/><circle class="cls-1" cx="184.4" cy="22.5" r="4.2"/><path d="M208.1,103.8v11.4c-6.4-.1-8.3,4.7-10.5,9.6-6.1,13.8-16.6,22-31.9,23-16.5,1.1-30.7-3.5-39.5-18.7a113.09,113.09,0,0,1-6.9-14.5c-.7-1.8-.9-3.6-2.1-4.3-1-.6-14.1-1.3-15.8.1s-2.7,4.4-4.4,9.3c-10.3,29.5-48.3,38.2-68.7,15.6-3.9-4.3-6.3-10-9.1-15.2-1.5-2.7-5.2-4.5-8.4-5.3-.9-.2.2-2,.2-2.9a89,89,0,0,1-.1-9c5.3-.4,8.3-3.6,10.8-7.6,15.6-24.9,51.5-20.8,65.6-5.8,1.3,1.3,2.5,2.7,3.7,4.1,3.2,3.6,5.7,6.2,10,7,1.5.3,14,.7,16.6,0,4.1-1.1,6.8-4.3,10.1-8.6,15.3-19.9,53.1-18.9,68,2.7C200.8,101.9,201.1,101.7,208.1,103.8Zm-44.5,39.4a29.94,29.94,0,0,0,22.6-10.9c7.1-8.6,10.8-18.8,7.2-29.4-3.7-10.9-12.2-17.8-23.9-19.5a66,66,0,0,0-15.4-.4c-13.2,1.2-25.2,10.8-27.6,21.5-2.7,11.9,3.8,27.3,14.3,33.5C146.9,141.6,153.5,143.3,163.6,143.2ZM54.7,82c-11.9.2-22.7,4.9-28,17.4-5.1,12.1-2.4,23.6,6.4,33.4,9.5,10.5,28.2,13.5,41.5,6.8,10.7-5.4,16.3-14.3,17-26.2s-5-20.1-14.9-26C70.1,83.6,63.1,82.1,54.7,82Z"/><path class="cls-2" d="M201.1,190H16A10,10,0,0,1,6,180V16A10,10,0,0,1,16,6H201.1a10,10,0,0,1,10,10V180A10,10,0,0,1,201.1,190Z"/><line class="cls-3" x1="6" y1="37.6" x2="211.1" y2="37.6"/><path d="M57,101.9H41.1a2.22,2.22,0,0,1-2.2-2.2h0a2.22,2.22,0,0,1,2.2-2.2H56.9a2.22,2.22,0,0,1,2.2,2.2h0A2.07,2.07,0,0,1,57,101.9Z"/><path d="M67.5,126.1H41.1a2.22,2.22,0,0,1-2.2-2.2h0a2.22,2.22,0,0,1,2.2-2.2H67.5a2.22,2.22,0,0,1,2.2,2.2h0A2.22,2.22,0,0,1,67.5,126.1Z"/><path d="M75.9,109.8H49.5a2.22,2.22,0,0,1-2.2-2.2h0a2.22,2.22,0,0,1,2.2-2.2H75.9a2.22,2.22,0,0,1,2.2,2.2h0A2.22,2.22,0,0,1,75.9,109.8Z"/><path d="M76.8,118H50.4a2.22,2.22,0,0,1-2.2-2.2h0a2.22,2.22,0,0,1,2.2-2.2H76.8a2.22,2.22,0,0,1,2.2,2.2h0A2.22,2.22,0,0,1,76.8,118Z"/><path d="M541.3,190.8h4.9v11.6l-.1,5.3a20.3,20.3,0,0,1,4.3-2.9,10.34,10.34,0,0,1,4.8-1.2,13.1,13.1,0,0,1,5,1,10.34,10.34,0,0,1,3.6,3,13.61,13.61,0,0,1,2.2,4.7,23.1,23.1,0,0,1,.8,6.1,20.07,20.07,0,0,1-1,6.7,15.12,15.12,0,0,1-2.8,5,11.71,11.71,0,0,1-4,3.1,11.17,11.17,0,0,1-4.8,1,10.59,10.59,0,0,1-4.2-.9,13.25,13.25,0,0,1-4.1-2.7h-.2l-.4,2.9h-4Zm4.9,36.2a13.33,13.33,0,0,0,3.8,2.4,9.31,9.31,0,0,0,3.3.7,7.31,7.31,0,0,0,3.3-.8,7.11,7.11,0,0,0,2.6-2.3,12,12,0,0,0,1.7-3.6,18.26,18.26,0,0,0,.6-4.9,20,20,0,0,0-.4-4.4,8.71,8.71,0,0,0-1.4-3.4,7.19,7.19,0,0,0-2.4-2.2,7.85,7.85,0,0,0-3.5-.8c-2.4,0-5,1.3-7.8,4V227Z"/><path d="M575,241.8a5.16,5.16,0,0,0,1.1.2,5.24,5.24,0,0,0,4.1-1.8,12.24,12.24,0,0,0,2.5-4.5l.7-2.2-11.7-29.2h5.1l5.9,16.1c.4,1.3.9,2.6,1.4,4s1,2.8,1.4,4.2h.2c.4-1.3.9-2.7,1.3-4.1s.8-2.8,1.2-4.1l5.2-16.1h4.8l-11,31.6a37,37,0,0,1-1.7,4,12.44,12.44,0,0,1-2.3,3.2,10.19,10.19,0,0,1-3,2.1,9.35,9.35,0,0,1-3.9.8,11.08,11.08,0,0,1-1.9-.2,7.49,7.49,0,0,1-1.6-.4l1-3.9Z"/><path d="M619.3,194.1h5v39.4h-5Z"/><path d="M636,204.3h4.1l.4,4.2h.2a23.3,23.3,0,0,1,4.4-3.5,10.32,10.32,0,0,1,5.4-1.4c3.1,0,5.3,1,6.8,2.9s2.1,4.8,2.1,8.5v18.5h-5V215.7c0-2.8-.4-4.7-1.3-6a4.91,4.91,0,0,0-4.2-1.8,7.48,7.48,0,0,0-4,1.1,26.9,26.9,0,0,0-4,3.4v21.1H636Z"/><path d="M671.2,208.4h-4.3v-3.7l4.6-.3.6-8.2h4.1v8.2h7.9v4h-7.9v16.2a7.26,7.26,0,0,0,1,4.2,3.89,3.89,0,0,0,3.5,1.5,11.14,11.14,0,0,0,1.7-.2c.6-.2,1.1-.3,1.6-.5l1,3.7c-.8.3-1.7.5-2.6.8a13.33,13.33,0,0,1-2.8.3,8.78,8.78,0,0,1-3.9-.7,6.5,6.5,0,0,1-2.6-2,7.37,7.37,0,0,1-1.4-3.1,16.43,16.43,0,0,1-.4-4V208.4Z"/><path d="M689.3,219a19.26,19.26,0,0,1,1.1-6.5,14.32,14.32,0,0,1,2.9-4.8,12.46,12.46,0,0,1,4.2-3,11.94,11.94,0,0,1,4.9-1,11.76,11.76,0,0,1,5,1,9.35,9.35,0,0,1,3.7,2.8,11.67,11.67,0,0,1,2.2,4.3,19.93,19.93,0,0,1,.8,5.6,18.7,18.7,0,0,1-.2,2.7H694.2a11.62,11.62,0,0,0,2.9,7.5,9,9,0,0,0,6.8,2.8,12.26,12.26,0,0,0,3.9-.6,21.1,21.1,0,0,0,3.4-1.6l1.7,3.2a24.55,24.55,0,0,1-4.3,2.1,14.73,14.73,0,0,1-5.3.9,16.29,16.29,0,0,1-5.5-1,12.3,12.3,0,0,1-4.4-3,14.52,14.52,0,0,1-3-4.8A17.26,17.26,0,0,1,689.3,219Zm20.4-2.2c0-3-.6-5.3-1.9-6.9a6.38,6.38,0,0,0-5.3-2.4,8,8,0,0,0-3,.6,7.25,7.25,0,0,0-2.5,1.8,8.6,8.6,0,0,0-1.9,2.9,15.94,15.94,0,0,0-1,3.9h15.6Z"/><path d="M722.8,204.3h4.1l.4,5.3h.2a14.43,14.43,0,0,1,3.6-4.4,7.36,7.36,0,0,1,4.6-1.6,7.45,7.45,0,0,1,3.1.6l-1,4.3a9.29,9.29,0,0,0-1.3-.4,6.62,6.62,0,0,0-1.5-.1,6.86,6.86,0,0,0-3.9,1.5,12.07,12.07,0,0,0-3.5,5.2v18.8h-4.9V204.3Z"/><path d="M745.1,204.3h4.1l.4,4.2h.2a23.3,23.3,0,0,1,4.4-3.5,10.32,10.32,0,0,1,5.4-1.4c3.1,0,5.3,1,6.8,2.9s2.1,4.8,2.1,8.5v18.5h-4.9V215.7c0-2.8-.4-4.7-1.3-6a4.91,4.91,0,0,0-4.2-1.8,7.48,7.48,0,0,0-4,1.1,26.9,26.9,0,0,0-4,3.4v21.1h-4.9V204.3Z"/><path d="M777.2,219a19.26,19.26,0,0,1,1.1-6.5,14.32,14.32,0,0,1,2.9-4.8,12.46,12.46,0,0,1,4.2-3,11.94,11.94,0,0,1,4.9-1,11.76,11.76,0,0,1,5,1,9.35,9.35,0,0,1,3.7,2.8,11.67,11.67,0,0,1,2.2,4.3,19.93,19.93,0,0,1,.8,5.6,18.7,18.7,0,0,1-.2,2.7H782.1a11.62,11.62,0,0,0,2.9,7.5,9,9,0,0,0,6.8,2.8,12.26,12.26,0,0,0,3.9-.6,21.1,21.1,0,0,0,3.4-1.6l1.7,3.2a24.55,24.55,0,0,1-4.3,2.1,14.73,14.73,0,0,1-5.3.9,16.29,16.29,0,0,1-5.5-1,12.3,12.3,0,0,1-4.4-3,14.52,14.52,0,0,1-3-4.8A17.26,17.26,0,0,1,777.2,219Zm20.4-2.2c0-3-.6-5.3-1.9-6.9a6.38,6.38,0,0,0-5.3-2.4,8,8,0,0,0-3,.6,7.25,7.25,0,0,0-2.5,1.8,8.6,8.6,0,0,0-1.9,2.9,15.94,15.94,0,0,0-1,3.9h15.6Z"/><path d="M810.7,208.4h-4.3v-3.7l4.6-.3.6-8.2h4.1v8.2h7.9v4h-7.9v16.2a7.26,7.26,0,0,0,1,4.2,3.89,3.89,0,0,0,3.5,1.5,11.14,11.14,0,0,0,1.7-.2c.6-.2,1.1-.3,1.6-.5l1,3.7c-.8.3-1.7.5-2.6.8a13.33,13.33,0,0,1-2.8.3,8.78,8.78,0,0,1-3.9-.7,6.5,6.5,0,0,1-2.6-2,7.37,7.37,0,0,1-1.4-3.1,16.43,16.43,0,0,1-.4-4V208.4Z"/><path d="M863.5,221.5H849.2l-3.8,12h-5.1l13.3-39.4h5.6l13.3,39.4h-5.3Zm-1.2-4-1.9-6c-.7-2.2-1.3-4.4-2-6.6s-1.3-4.4-1.9-6.7h-.2c-.6,2.3-1.3,4.5-1.9,6.7s-1.3,4.4-2,6.6l-1.9,6Z"/><path d="M876.8,219a18.84,18.84,0,0,1,1.1-6.5,14.72,14.72,0,0,1,3.1-4.8,13.66,13.66,0,0,1,4.5-3,14,14,0,0,1,5.4-1,12.72,12.72,0,0,1,5,1,16.12,16.12,0,0,1,3.6,2.4l-2.5,3.2a14.83,14.83,0,0,0-2.7-1.9,6.43,6.43,0,0,0-3.1-.7,9.46,9.46,0,0,0-3.7.8,8,8,0,0,0-2.9,2.3,12.29,12.29,0,0,0-1.9,3.6,15.46,15.46,0,0,0,0,9.2,11.55,11.55,0,0,0,1.8,3.5,8.23,8.23,0,0,0,2.9,2.3,8.74,8.74,0,0,0,3.7.8,7.9,7.9,0,0,0,3.8-.9,16.1,16.1,0,0,0,3-2.1l2.2,3.2a15.66,15.66,0,0,1-4.4,2.8,12.55,12.55,0,0,1-5.1,1,14,14,0,0,1-5.4-1,11.92,11.92,0,0,1-4.3-3,14.32,14.32,0,0,1-2.9-4.8A16.23,16.23,0,0,1,876.8,219Z"/><path d="M905.8,225.9a8.2,8.2,0,0,1,4.3-7.4c2.9-1.7,7.4-2.9,13.7-3.6a12.41,12.41,0,0,0-.3-2.7,5.37,5.37,0,0,0-1-2.3,7.28,7.28,0,0,0-1.8-1.7,6.24,6.24,0,0,0-2.9-.6,11.17,11.17,0,0,0-4.8,1,18.07,18.07,0,0,0-3.9,2.2l-2-3.4a38.11,38.11,0,0,1,5-2.6,17.1,17.1,0,0,1,6.5-1.2c3.6,0,6.1,1.1,7.7,3.3a14.46,14.46,0,0,1,2.4,8.7v17.9h-4.1l-.4-3.5h-.1a22.05,22.05,0,0,1-4.5,3,11.25,11.25,0,0,1-5.1,1.2,8.48,8.48,0,0,1-6.1-2.2C906.6,230.6,905.8,228.6,905.8,225.9Zm4.9-.3a4.09,4.09,0,0,0,1.5,3.6,6.15,6.15,0,0,0,3.6,1.1,8.19,8.19,0,0,0,4-1,19.05,19.05,0,0,0,4-2.9v-8.1a59.53,59.53,0,0,0-6.2,1.1,13.83,13.83,0,0,0-4,1.6,5.59,5.59,0,0,0-2.2,2.1A4.3,4.3,0,0,0,910.7,225.6Z"/><path d="M937.4,219a18.3,18.3,0,0,1,1-6.4,14.14,14.14,0,0,1,2.8-4.8,14.85,14.85,0,0,1,4-3.1,11.25,11.25,0,0,1,4.8-1.1,10.17,10.17,0,0,1,4.4.9,19,19,0,0,1,3.8,2.5l-.2-5V190.8h5v42.7h-4.1l-.4-3.4h-.2a19.5,19.5,0,0,1-4,2.9,10.05,10.05,0,0,1-4.8,1.2,10.69,10.69,0,0,1-8.8-4C938.5,227.6,937.4,223.9,937.4,219Zm5.1-.1c0,3.5.7,6.3,2.1,8.2a6.75,6.75,0,0,0,5.9,2.9,7.21,7.21,0,0,0,3.8-1,15.91,15.91,0,0,0,3.6-3V210.8a12.55,12.55,0,0,0-3.6-2.4,8.75,8.75,0,0,0-3.5-.7,7.64,7.64,0,0,0-3.3.8,8.3,8.3,0,0,0-2.7,2.3,10.56,10.56,0,0,0-1.8,3.5A21.61,21.61,0,0,0,942.5,218.9Z"/><path d="M972.1,219a19.26,19.26,0,0,1,1.1-6.5,14.32,14.32,0,0,1,2.9-4.8,12.46,12.46,0,0,1,4.2-3,11.94,11.94,0,0,1,4.9-1,11.76,11.76,0,0,1,5,1,9.35,9.35,0,0,1,3.7,2.8,11.67,11.67,0,0,1,2.2,4.3,19.93,19.93,0,0,1,.8,5.6,18.7,18.7,0,0,1-.2,2.7H977a11.62,11.62,0,0,0,2.9,7.5,9,9,0,0,0,6.8,2.8,12.26,12.26,0,0,0,3.9-.6,21.1,21.1,0,0,0,3.4-1.6l1.7,3.2a24.55,24.55,0,0,1-4.3,2.1,14.73,14.73,0,0,1-5.3.9,16.29,16.29,0,0,1-5.5-1,12.3,12.3,0,0,1-4.4-3,14.52,14.52,0,0,1-3-4.8A17.26,17.26,0,0,1,972.1,219Zm20.4-2.2c0-3-.6-5.3-1.9-6.9a6.38,6.38,0,0,0-5.3-2.4,8,8,0,0,0-3,.6,7.25,7.25,0,0,0-2.5,1.8,8.6,8.6,0,0,0-1.9,2.9,15.94,15.94,0,0,0-1,3.9h15.6Z"/><path d="M1005.5,204.3h4.1l.4,4.2h.2a19.54,19.54,0,0,1,4.2-3.5,9.31,9.31,0,0,1,4.9-1.4,8.05,8.05,0,0,1,5.2,1.5,8.62,8.62,0,0,1,2.8,4.1,20.92,20.92,0,0,1,4.6-4,8.9,8.9,0,0,1,5-1.5,8,8,0,0,1,6.7,2.9c1.5,1.9,2.2,4.8,2.2,8.5v18.4h-4.9V215.7c0-2.8-.4-4.7-1.3-6a4.71,4.71,0,0,0-4.1-1.8c-2.2,0-4.6,1.5-7.3,4.5v21.1h-4.9V215.7c0-2.8-.4-4.7-1.3-6a4.84,4.84,0,0,0-4.1-1.8c-2.2,0-4.6,1.5-7.3,4.5v21.1h-4.9V204.3Z"/><path d="M1055.9,241.8a5.16,5.16,0,0,0,1.1.2,5.24,5.24,0,0,0,4.1-1.8,12.24,12.24,0,0,0,2.5-4.5l.7-2.2-11.7-29.2h5.1l5.9,16.1c.4,1.3.9,2.6,1.4,4s1,2.8,1.4,4.2h.2c.4-1.3.9-2.7,1.3-4.1s.8-2.8,1.2-4.1l5.2-16.1h4.8l-11,31.6a37,37,0,0,1-1.7,4,12.44,12.44,0,0,1-2.3,3.2,10.19,10.19,0,0,1-3,2.1,9.35,9.35,0,0,1-3.9.8,11.08,11.08,0,0,1-1.9-.2,7.49,7.49,0,0,1-1.6-.4l1-3.9Z"/></g></g></svg>